<svg width="542" height="542" viewBox="0 0 542 542" fill="none" xmlns="http://www.w3.org/2000/svg">
<g clip-path="url(#clip0_42_80)">
<path d="M209.5 528.6C202.6 525.5 200.1 519.5 200 506C200 500.8 200.4 494.9 201 493.1C202 489.6 205.9 484.7 209.5 482.7C210.9 481.8 231.3 481.3 283 480.9C361.8 480.3 357.3 480.7 370.2 473.8C383 467 393.3 452.8 395.9 438.6C396.5 435.3 397 423.3 397 411.9V391.1L354.8 390.8C314.8 390.4 312.1 390.3 304.5 388.2C289.1 383.9 277.4 377 264.9 364.8C250.7 350.9 241 331.6 239.4 313.9L238.7 307H234.4C223.5 307 209.9 297.5 204.1 285.8C202.4 282.4 201 279.1 201 278.5C201 277.6 193.3 277.1 169.8 276.7C152.6 276.4 135.6 275.7 132 275.1C115.1 272.1 96.3 264.1 82.9 254C74.6 247.8 60.1 232.7 55.5 225.5C46.8 212 40.1 194.7 36.8 177.5C34.7 166.2 35 122.7 37.3 112.2C48.2 62.9 81.8 28 131.9 14.1L141.5 11.5H267.5H393.5L401.6 14.3C417.3 19.6 432.2 31.9 438.8 45.3C444.9 57.5 445.3 60.2 445.8 97.7L446.2 131.9L472.7 132.2L499.2 132.5L502.6 136.2L506 140L506.1 258.7C506.2 324.1 506.1 378.6 506 380C505.7 383.8 502.9 387.8 499.4 389.5C496.8 390.7 491.5 391 471.1 391H446V410.8C446 443.2 443.7 456.8 435.8 472.4C422.1 499.7 398.8 518.7 368.2 527.3C360.7 529.4 358.9 529.5 286.5 529.7C226.2 529.9 211.9 529.7 209.5 528.6ZM466 334V313H421.5H377V334V355H421.5H466V334ZM466 261.8V247.5H422H378V261.8V276H422H466V261.8ZM201.4 225.4C203.2 218.5 213 208.1 222.1 203.5C225.1 201.9 229.8 200.6 233 200.3L238.7 199.7L240.5 194.1C249.5 165.2 272.6 144 305.6 134.3C310.7 132.8 317.5 132.6 354.8 132.2L398.1 131.9L397.8 101.2C397.5 72.4 397.4 70.3 395.5 67C394.3 65.1 391.9 62.7 390 61.5C386.5 59.5 385.1 59.5 270.7 59.2C159.5 59 154.6 59 145.5 60.9C133.6 63.3 121.8 68.9 112.8 76.4C79.1 104.3 73.1 165.6 100.4 201.7C108.9 212.9 123.1 222.3 137.2 226C143.5 227.6 148.3 227.9 172.6 227.9L200.8 228L201.4 225.4ZM466 189.5V168H422H378V189.5V211H422H466V189.5Z" fill="#FF4F00"/>
</g>
<defs>
<clipPath id="clip0_42_80">
<rect width="542" height="542" fill="white"/>
</clipPath>
</defs>
</svg>
