<svg xmlns="http://www.w3.org/2000/svg" width="1024" height="1024" viewBox="0 0 1024 1024" fill="none"><metadata><rdf:RDF xmlns:rdf="http://www.w3.org/1999/02/22-rdf-syntax-ns#" xmlns:dc="http://purl.org/dc/elements/1.1/"><rdf:Description><dc:creator>RealFaviconGenerator</dc:creator><dc:source>https://realfavicongenerator.net</dc:source></rdf:Description></rdf:RDF></metadata><g clip-path="url(#clip0_178_2)">
<path d="M395.808 998.683C382.772 992.827 378.049 981.491 377.86 955.985C377.86 946.161 378.615 935.014 379.749 931.613C381.638 925.001 389.007 915.743 395.808 911.965C398.453 910.264 436.995 909.32 534.672 908.564C683.548 907.43 675.046 908.186 699.418 895.15C723.601 882.303 743.061 855.475 747.973 828.647C749.107 822.412 750.052 799.74 750.052 778.202V738.905L670.323 738.338C594.751 737.582 589.65 737.394 575.291 733.426C546.196 725.302 524.091 712.266 500.475 689.216C473.647 662.955 455.321 626.492 452.298 593.051L450.976 580.015H442.852C422.258 580.015 396.564 562.067 385.606 539.962C382.394 533.538 379.749 527.303 379.749 526.17C379.749 524.469 365.201 523.525 320.803 522.769C288.307 522.202 256.189 520.88 249.387 519.746C217.458 514.078 181.939 498.964 156.623 479.882C140.942 468.168 113.547 439.64 104.856 426.037C88.4192 400.531 75.7609 367.847 69.5262 335.351C65.5587 314.002 66.1254 231.817 70.4708 211.979C91.0642 118.837 154.545 52.9005 249.199 26.6392L267.336 21.7271H505.387H743.439L758.742 27.0171C788.404 37.0304 816.555 60.2687 829.024 85.5854C840.549 108.635 841.305 113.736 842.249 184.585L843.005 249.199L893.072 249.765L943.138 250.332L949.562 257.323L955.985 264.502L956.174 488.762C956.363 612.322 956.174 715.289 955.985 717.934C955.418 725.113 950.128 732.67 943.516 735.882C938.604 738.149 928.59 738.716 890.049 738.716H842.627V776.124C842.627 837.337 838.282 863.032 823.356 892.505C797.473 944.083 753.452 979.979 695.64 996.227C681.47 1000.19 678.069 1000.38 541.284 1000.76C427.359 1001.14 400.342 1000.76 395.808 998.683ZM880.413 631.026V591.351H796.339H712.266V631.026V670.701H796.339H880.413V631.026ZM880.413 494.619V467.602H797.284H714.155V494.619V521.447H797.284H880.413V494.619ZM380.505 425.848C383.906 412.812 402.421 393.163 419.613 384.472C425.281 381.45 434.161 378.993 440.207 378.427L450.976 377.293L454.376 366.713C471.38 312.112 515.023 272.059 577.37 253.733C587.005 250.899 599.852 250.521 670.323 249.765L752.13 249.199L751.563 191.197C750.996 136.785 750.807 132.818 747.218 126.583C744.951 122.993 740.416 118.459 736.827 116.192C730.214 112.413 727.569 112.413 511.433 111.847C301.343 111.469 292.086 111.469 274.893 115.058C252.41 119.593 230.117 130.173 213.113 144.343C149.444 197.054 138.108 312.868 189.686 381.072C205.745 402.232 232.573 419.991 259.212 426.982C271.114 430.005 280.183 430.571 326.093 430.571L379.371 430.76L380.505 425.848ZM880.413 358.022V317.402H797.284H714.155V358.022V398.642H797.284H880.413V358.022Z" fill="#D14C26"></path>
</g><defs>
<clipPath id="clip0_178_2">
<rect width="1024" height="1024" fill="white"></rect>
</clipPath>
</defs></svg>